<?xml version="1.0" encoding="utf-8"?>
<!-- Generator: Adobe Illustrator 23.0.1, SVG Export Plug-In . SVG Version: 6.00 Build 0)  -->
<svg version="1.1" id="e87ddc62-7528-42a5-8b37-f74ed0351019"
	 xmlns="http://www.w3.org/2000/svg" xmlns:xlink="http://www.w3.org/1999/xlink" x="0px" y="0px" viewBox="0 0 1131 812.2"
	 style="enable-background:new 0 0 1131 812.2;" xml:space="preserve">
<style type="text/css">
	.st0{opacity:0.3;fill:#00fdc8;enable-background:new    ;}
	.st1{fill:none;stroke:#3F3D56;stroke-miterlimit:10;}
	.st2{fill:#00fdc8;}
	.st3{fill:#F2F2F2;}
	.st4{fill:#47465A;}
	.st5{opacity:0.1;enable-background:new    ;}
	.st6{fill:#7A799C;}
	.st7{fill:#9493B6;}
	.st8{fill:#D48A9B;}
	.st9{fill:#3A3768;}
	.st10{fill:#434175;}
	.st11{fill:#565387;}
	.st12{fill:#EE8E9E;}
	.st13{fill:#DFE5EE;}
	.st14{fill:#603556;}
	.st15{opacity:0.1;}
	.st16{fill:#FFFFFF;}
</style>
<title>software engineer</title>
<rect x="689.3" y="51.3" class="st0" width="80.8" height="30.1"/>
<rect x="823.6" class="st0" width="80.8" height="30.1"/>
<rect x="829.2" y="93.1" class="st0" width="80.8" height="30.1"/>
<rect x="570.6" y="127.6" class="st0" width="80.8" height="30.1"/>
<rect x="545" y="251.3" class="st0" width="80.8" height="30.1"/>
<rect x="667" y="248.5" class="st0" width="80.8" height="30.1"/>
<polyline class="st1" points="823.6,14.9 770.1,65.6 829.2,108.1 "/>
<line class="st1" x1="689.3" y1="65.6" x2="611" y2="127.6"/>
<polyline class="st1" points="585.4,251.3 611,157.7 707.4,248.5 "/>
<rect x="144.3" y="82.3" class="st0" width="80.8" height="30.1"/>
<rect x="278.6" y="31" class="st0" width="80.8" height="30.1"/>
<rect x="284.2" y="124.1" class="st0" width="80.8" height="30.1"/>
<rect x="25.6" y="158.6" class="st0" width="80.8" height="30.1"/>
<rect y="282.3" class="st0" width="80.8" height="30.1"/>
<rect x="122" y="279.5" class="st0" width="80.8" height="30.1"/>
<polyline class="st1" points="278.6,45.9 225.1,96.6 284.2,139.1 "/>
<line class="st1" x1="144.3" y1="96.6" x2="66" y2="158.6"/>
<polyline class="st1" points="40.4,282.3 66,188.7 162.4,279.5 "/>
<line class="st1" x1="365" y1="139.1" x2="456.6" y2="139.1"/>
<rect x="415.5" y="123.7" class="st2" width="95" height="30"/>
<line class="st1" x1="510.6" y1="138.7" x2="570.6" y2="138.7"/>
<line class="st1" x1="415" y1="138.7" x2="359.4" y2="45.9"/>
<ellipse class="st3" cx="691" cy="714.2" rx="440" ry="98"/>
<polygon class="st4" points="895,391.6 852.1,606.6 842.8,606.6 841.8,605 838.8,600.4 876,399.6 881.6,397.2 "/>
<polygon class="st5" points="881.6,397.2 841.8,605 838.8,600.4 876,399.6 "/>
<polygon class="st4" points="959.6,684.4 948.5,688 945.9,688.9 942.3,680.9 881.6,404 887.9,402.5 901.2,399.6 "/>
<polygon class="st5" points="948.5,688 945.9,688.9 942.3,680.9 881.6,404 887.9,402.5 "/>
<polygon class="st4" points="433.6,391.6 423.9,670.3 412.8,672.8 412,672.9 408.9,667.2 415.1,394.3 421,393.4 "/>
<polygon class="st5" points="421,393.4 412.8,672.8 412,672.9 408.9,667.2 415.1,394.3 "/>
<polygon class="st4" points="491.6,768.9 480,770.9 478.8,771.1 475.2,763.6 419,399.6 420.7,399.1 429.2,396.5 "/>
<polygon class="st5" points="480,770.9 478.8,771.1 475.2,763.6 419,399.6 420.7,399.1 "/>
<path class="st6" d="M735.7,369.1l43,54.9c3,3.8,7.8,5.8,12.6,5.2l176.3-20.6c7-0.8,12.3-6.8,12.3-13.8V354L735.7,369.1z"/>
<path class="st4" d="M880.4,377.9h11.9l0,0v17.2c0,2.5-2,4.4-4.4,4.4l0,0h-3.1c-2.5,0-4.4-2-4.4-4.4l0,0L880.4,377.9L880.4,377.9z"
	/>
<path class="st6" d="M419,404l43,54.9c3,3.8,7.8,5.8,12.6,5.2l176.3-20.6c7-0.8,12.3-6.8,12.3-13.8V389L419,404z"/>
<path class="st4" d="M563.7,412.8h11.9l0,0v17.2c0,2.5-2,4.4-4.4,4.4l0,0h-3.1c-2.5,0-4.4-2-4.4-4.4l0,0V412.8L563.7,412.8z"/>
<path class="st4" d="M468.4,431.8l524.5-61.1c4.2-0.5,7.3-4.3,6.8-8.6c-0.3-2.6-1.9-4.8-4.2-6L901.6,309
	c-18.5-9.3-39.2-13.1-59.8-11l-465.9,47.5c-4.9,0.5-8.5,4.9-7.9,9.8c0.2,2,1.1,3.9,2.5,5.3l54.3,55.7
	C436,427.9,452.2,433.6,468.4,431.8z"/>
<path class="st4" d="M1050.5,362.4l-5.6-3.1c0,0-6.1,4.5-11,23.2s9.2,0.2,9.2,0.2l6.2-12.8L1050.5,362.4z"/>
<path class="st4" d="M990.5,534.5c0,0-5.8,27-8.4,34.5c-1.3,3.7-7.6,7-14.5,9.6c-6.2,2.3-12.6,4-19.1,5
	c-7.5,0.9-103.9-14.2-150.8-24.3c-31.6-6.9-35.7-14.7-35-19.1c0.2-1.3,0.9-2.5,1.8-3.5c0,0,46.4-31.4,62.8-46.4s48.7-3.1,84,3.1
	S990.5,534.5,990.5,534.5z"/>
<path class="st4" d="M1044.9,359.3c0,0,21.7,14.2-51.3,43.3c0,0-39.7,22.4-34.5,114.5c0.2,4.1,1.5,8.2,3.7,11.7
	c7.5,12.4,23.7,43.7-3.2,47.6v7.1c0,0,48.7-24.3,54-45.1s23-136.2,31.8-146.9S1060,364.2,1044.9,359.3z"/>
<path class="st5" d="M967.6,578.6c-6.2,2.3-12.6,4-19.1,5c-7.5,0.9-103.9-14.2-150.8-24.3c-31.6-6.9-35.7-14.7-35-19.1
	c20.8,7.1,88.2,29.6,112.4,31.5c28.8,2.2,83.7,8.4,87.8,4.2C964.5,574.2,966.2,575.9,967.6,578.6z"/>
<path class="st4" d="M719,745l40-175.9c0,0,7.2-18.6,23.6-17.8l15.1,7.3c0,0-25.2-5.7-30.7,13c-5.5,18.6-40.4,173.4-40.4,173.4H719z
	"/>
<polygon class="st4" points="815.8,675.1 832.6,557.9 840.1,557.9 822.9,675.1 "/>
<path class="st4" d="M978.6,763L963,600.7c0,0,0-13.7,7.8-20.4c7.8-6.7,32.9-25.7,32.9-25.7s6.4-1.4,11.6,12
	c5.2,13.3,41.1,146.6,41.1,146.6l-6.9,2.7L1005,562.2l-30.7,26.3c0,0-6.1,9.8-3,18.8S985.5,763,985.5,763H978.6z"/>
<polygon class="st4" points="927.7,579.2 967.5,590.7 976.4,582.3 953.4,579.2 "/>
<path class="st6" d="M573.8,256.3l6.5,96.8l141.1-13.7l-5.6-94.6c-0.3-5.2-4.8-9.3-10.1-8.9c-0.1,0-0.2,0-0.2,0l-122.9,10.3
	C577.3,246.6,573.5,251.1,573.8,256.3z"/>
<polygon class="st6" points="768.7,367.3 628,382.6 622.7,383.2 581.6,356.7 581.6,350.9 721.4,338.3 "/>
<polygon class="st5" points="628,382.6 622.7,383.2 581.6,356.7 581.6,351.5 "/>
<polygon class="st7" points="583.4,255.4 588.2,341.6 712.1,330.1 707.7,246.1 "/>
<polygon class="st5" points="657.2,365.5 672.3,375.7 717.8,371.3 702.3,361.5 "/>
<polygon class="st7" points="595.7,353.1 614.8,367.3 736.4,355.8 714.7,341.6 "/>
<polygon class="st5" points="817.2,439.5 821.8,439.5 828.1,437.6 828.1,445.5 821.7,446 817.2,446.4 "/>
<polygon class="st8" points="884.5,411.9 858.4,422.1 819.3,422.1 818.6,403.1 878.4,398.9 "/>
<polygon class="st5" points="884.5,411.9 858.4,422.1 819.3,422.1 818.6,403.1 878.4,398.9 "/>
<rect x="880.2" y="631.6" class="st5" width="11.8" height="11.9"/>
<rect x="877.9" y="634.4" class="st9" width="16.3" height="81.5"/>
<path class="st10" d="M743.5,705.1c-1-2.9-2.5-5.3-4.7-6.5c-9.4-5.2-41.9-4.6-41.9-4.6s-2.8,3.4-6.7,7.7c-5,5.5-11.8,12.3-16.2,14.6
	c-7.9,4.2-8.1,6.6-14.2,6.8c-6.1,0.2-22.5,4.6-21.4,9.8s19.4,11.8,32.7,11.8s73.7-1.1,73.7-1.1v-12.7
	C744.9,730.9,746.9,714.9,743.5,705.1z"/>
<path class="st5" d="M738.8,698.6c-9.4-5.2-41.9-4.6-41.9-4.6s-2.8,3.4-6.7,7.7c6.6,0.1,46.5,1.1,53.3,3.4
	C742.5,702.2,741,699.9,738.8,698.6z"/>
<path class="st11" d="M910.9,502.8l-3-0.3l-43.1-3.7l-4.6-0.4l-43.8-3.7l-4.6,7.4l0,0c-0.4,0.2-6.1,2.5-11.8,0
	c-5.9-2.6-41.9-2.5-52.6,1.2c-1.7,0.6-3.5,1-5.2,1.4c-8.7,1.8-21.6,3.2-29.4,4c-4,0.4-6.6,0.6-6.6,0.6s-19.6,1.1-19.2,34.9
	s2.2,50.4,2.2,50.4s2.6,27.9,0.7,32.3c-2,4.4-0.9,23.1-0.9,23.1s-1.3,24.7,0.4,28.8c1.8,4.1-0.2,21.6-0.2,21.6s47.3,0.9,54.3,3.5
	c0,0-2.2-12.2,0.2-15.1s-3.5-7.6-3.5-7.6l1.8-8.5l-2.6-39.9c0,0-0.9-7.4,1.1-12c2-4.6,0.7-40.1-1.1-47.6s-2.6-16.2,1.7-14.2
	c3.2,1.4,31.6,6.6,48.8,9.4c1.3,0.2,2.6,0.4,3.8,0.6c4.4,0.7,7.7,1.2,8.7,1.3c4.1,0.3,78.9-44.5,106.3-61l5.1-3.1l1.3-0.8l3.5-2.1
	L910.9,502.8z"/>
<path class="st5" d="M742.3,504.7c-8.7,1.8-21.6,3.2-29.4,4c5.6,12.4,17.8,34.4,30.5,28.2C755.6,530.9,748,514.2,742.3,504.7z"/>
<path class="st12" d="M759.4,367c0,0-1.8,1.6-3.9,3.6c-1.8,1.7-4,3.8-5.5,5.4c-3.3,3.5-15.1,27-15.1,27s-6.5,7.9-8.7,14.6
	c-2.2,6.8-5.9,16.4-5.9,16.4s-5.2,22.5-6.1,27.9s-4.1,37.1-4.1,37.1s16.4,44.6,33.8,36.1c12.8-6.3,3.7-24.5-2-33.7
	c-1.7-2.7-4.1-4.9-6.9-6.5c-1.4-0.8-2.3-2.2-0.3-4.4c3.9-4.6,12.2-37.5,12.2-37.5s1.1-14.8,4.8-21.2c2.5-4,6-7.5,10-10
	c0,0,13.6-19.6,18.3-29.1c0.8-1.3,1.3-2.8,1.5-4.3C781.8,383.2,759.4,367,759.4,367z"/>
<path class="st10" d="M926.9,717.7c0,0-1-20.9-12.4-31.5c-2.9-2.7-6.4-4.6-10.3-5.5c-21.2-4.6-28.8,15.7-28.8,15.7s-2,2.3-4.8,5.5
	c-5.8,6.6-15.2,17.1-17.9,18.7c-3.9,2.4-6.7,7.6-18.5,9.6s-13.8,12-4.8,14.4s60.4,1.3,60.4,1.3l39.7-17.7L926.9,717.7z"/>
<path class="st5" d="M911.3,504.6l-3.3-2.2l-1-0.6l-9.1-5.9l-30.8-2.2l-6.1,4.1l-0.7,0.5l-2.7,1.8l-5.1,3.5c0,0-39.3,8.7-44.7,17.9
	l-4.8,3.7c0,0-22.7,13.3-18.1,30.8c1.1,4.3,2.8,8.4,5,12.2l0.1,0.2c1.3,0.2,2.6,0.4,3.8,0.6c4.4,0.7,7.7,1.2,8.7,1.3
	c4.1,0.3,78.9-44.5,106.3-61l5.1-3.1L911.3,504.6z"/>
<path class="st5" d="M904.2,680.8c-21.2-4.6-28.8,15.7-28.8,15.7s-2,2.3-4.8,5.5l0.7,3.7c0,0,34.9,9.4,43.2-19.5
	C911.6,683.5,908.1,681.6,904.2,680.8z"/>
<path class="st11" d="M932.9,527.7c0-0.5,0-0.9,0-1.3c-0.1-5.6-0.6-9.8-0.6-9.8l-17-11l-4.4-2.8l-9.1-5.9l-17.1-1.2l-13.7-1
	l-6.1,4.1l-1.6,1.1l-1.8,1.2l-5.1,3.4c0,0-1.8,0.4-4.8,1.1c-4.5,1.1-11.4,3-18.4,5.3c-9.6,3.2-19.1,7.3-21.5,11.5l-4.8,3.7
	c0,0-0.9,0.5-2.2,1.4c-5.6,3.9-19.6,15.3-15.9,29.3c1.1,4.3,2.8,8.4,5,12.2c2.9,5.3,6.8,9.9,11.6,13.5c0,0,13.1,14,12.5,16.7
	c-0.7,2.7,14.8,18,14.8,18s9.2,13.3,8.5,15.9s11.1,22.5,11.1,22.5s5.5,15.7,8.1,17.2s2.6,6.8,2.6,6.8s3.9,13.1,6.5,14.4l1.8,9.8
	c0,0,42.7,11.6,44.9-30.1l-29.7-58.7c0,0-9.6-11.1-9.2-17.9s-15.7-23.1-15.7-23.1s9.2,1.8,15.9-3.5c0,0,33.1-15.5,46-15.5
	C931.9,555.1,933.1,539,932.9,527.7z"/>
<path class="st12" d="M854.4,310.8c-1.4,0-2.7,0.1-4,0.5c-1.4,0.4-3.5-4.8-4.6-10.1c-0.6-3.2-0.8-6.4-0.2-8.2
	c1.8-5-49.3-2.8-49.3-2.8s2,5.8,4.5,13.6c2.9,9.3,6.4,21.3,7.8,29.5c0.5,2.3,0.6,4.6,0.6,6.9c-0.9,10.5,0,46.5,0,46.5
	s11.5-6.6,12.4-7c0.9-0.4,22-20.3,22.9-22.2c0.9-2,9-30.1,9-30.1l4.6-16.4C857.9,310.8,856.2,310.7,854.4,310.8z"/>
<path class="st5" d="M845.5,292.9c1.8-5-49.3-2.8-49.3-2.8s2,5.8,4.5,13.6c13.9,9.2,32.2,8.2,45-2.5
	C845.1,297.9,844.8,294.8,845.5,292.9z"/>
<path class="st12" d="M859.3,270.5c-0.1-20.7-17-37.5-37.7-37.4c0,0,0,0,0,0c-20.8,0-37.7,16.9-37.7,37.8
	c0,20.8,16.9,37.7,37.8,37.7s37.7-16.9,37.7-37.8C859.3,270.7,859.3,270.6,859.3,270.5z"/>
<path class="st5" d="M854.4,310.8c-1.7,2-5.4,6.7-5.6,8.7c-0.2,2.6-9.2,17.6-9.2,17.6s-7.9,10.3-10,15.9
	c-2.2,5.7-16.2,19.2-16.2,19.2v4.4l-3.9-5.9l1.7-1.3l0.2-24.2l-3-12.1c0.5,2.3,0.6,4.6,0.6,6.9c-0.9,10.5,0,46.5,0,46.5
	s11.5-6.6,12.4-7c0.9-0.4,22-20.3,22.9-22.2c0.9-2,9-30.1,9-30.1l4.6-16.4C857.9,310.8,856.2,310.7,854.4,310.8z"/>
<path class="st5" d="M759.3,367c0,0-1.8,1.6-3.9,3.6c3.6,18.6,19.8,21.6,24.6,22.1c0.8-1.3,1.3-2.8,1.5-4.3
	C781.8,383.2,759.3,367,759.3,367z"/>
<path class="st5" d="M932.3,516.5l-17.1-11l3.5-2.1l-7.9-0.7l-9.1-5.9l-30.8-2.2l-6.1,4.1l-48.4-4.1l-4.6,7.4l0,0c0,0.8,0,1.3,0,1.3
	c4.8-1.1,9.4-2.8,13.7-5c6.1-3.2,20.3,1.8,20.3,1.8l15.5,1c11.9,0.7,27,1.7,31.6,2.1c5.1,0.4,11.7,3.9,15.8,6.2
	c2.2,1.3,3.6,2.3,3.6,2.3s5.7,5.7,9.4,7.4c2.5,1.2,6.7,5.4,11.1,8.5C932.9,521.4,932.3,516.5,932.3,516.5z"/>
<path class="st13" d="M939.3,520.6c0,0-4.1-6.1-4.1-8.3s-5.2-7-5.2-7l-5.7-21.2c0,0,0.4-8-1.8-10.2s-2.8-8.1-2.8-8.1
	s0.9-12.4-2.2-16.4c-1.7-2.2-4.3-6.2-6.3-9.3l0,0c-1.5-2.4-2.6-4.2-2.6-4.2l-33.7-64l-3.6-6.9l42.3-15.3
	c-7.9-21.8-14.8-26.8-19.6-32.1c-3.2-3.4-14.6-6.3-22.2-7.9c-3.6-0.7-7.4-0.5-10.9,0.6c-0.5,0.2-1.1,0.3-1.6,0.2
	c-1.2-0.1-2.5-0.1-3.7,0c0,0-6.1,7-6.3,9.6C849,323,840,338,840,338s-7.9,10.3-10,16c-2.1,5.7-16.1,19.2-16.1,19.2v4.3l-3.9-5.9
	l1.8-1.3l0.2-24.2l-6.3-25.6c-3.5-0.4-7-0.5-10.5-0.3c-7.5,0.2-14,12.4-14,12.4s-11.6,11.4-12.4,14.4s-13.1,15.3-13.1,15.3
	c0.4,28.8,26.6,29.2,26.6,29.2s2.2-4.7,6.1-2s11.6,42.8,13.5,50s3.9,23.1,3.9,23.1s2.4,11.6,4.1,17.9c1.8,6.3,2,21.6,2,21.6
	c4.8-1.1,9.4-2.8,13.7-5c6.1-3.2,20.3,1.8,20.3,1.8l8.1,0.5l9.2,0.6l17.8,1.1c5.4,0.4,9.9,0.7,12,0.8c7.8,0.7,19.4,8.5,19.4,8.5
	s5.7,5.7,9.4,7.4c2.5,1.2,6.7,5.4,11.1,8.5l0,0c1.9,1.5,4.1,2.6,6.4,3.3C945.6,531.1,939.3,520.6,939.3,520.6z"/>
<path class="st5" d="M908.6,436l-33.7-64c-0.9,1.5-1.6,3.2-2.1,4.9c0,0,4.6,17.7,2.8,20.1s3,19.6,3,19.6s0.6,6.1-2,8.1
	s-10.5,42.5-10.5,42.5L854,499.3l-2.4,6.3l-2.3,6.1c0,0-7.2-0.7-16.1-0.8c-9.6,3.2-19.1,7.3-21.5,11.5l-4.8,3.7c0,0-0.9,0.5-2.2,1.4
	c11.2,11.4,46.3,8.6,46.3,8.6l16.1-14.2c0,0,7.4-11.1,14-20.9l3.7-5.4c3.2-4.6,5.7-8.3,6.4-9c2.2-2.4,19.4-42.8,19.4-42.8
	c0.2-1.2,0.4-2.4,0.7-3.6l0,0C909.7,437.8,908.6,436,908.6,436z"/>
<path class="st12" d="M915.3,360.1c4.8,6.3,0.2,59.1,0.2,59.1s2.8,7-0.9,11.1c-3.7,4.1-4.6,12.2-4.6,12.2s-17.2,40.4-19.4,42.8
	s-24,35.3-24,35.3l-16.1,14.2c0,0-43.6,3.5-49.1-13.1s47.4-11.3,47.4-11.3l16.9-44.5c0,0,7.8-40.6,10.5-42.5c2.7-2,2-8.1,2-8.1
	s-4.8-17.2-3.1-19.6s-2.8-20.1-2.8-20.1C877.3,356.6,910.5,353.7,915.3,360.1z"/>
<path class="st5" d="M733.3,556.4c-3.7-6.5-17.4-11.1-17.4-11.1S737,562.9,733.3,556.4z"/>
<path class="st5" d="M740.6,554.4c1.2-4.5-17.2-22.9-17.7-23.6C722.9,530.9,739.4,558.9,740.6,554.4z"/>
<path class="st5" d="M846.2,557.9c-1.8-4.2-22.3-13.9-22.3-13.9S847.9,562.1,846.2,557.9z"/>
<path class="st5" d="M846.2,566.2c-2.5-2-21-9.8-21-9.8S848.7,568.2,846.2,566.2z"/>
<path class="st5" d="M846.4,574.5c-4.5,4.8-12.7-1.3-12.7-1.3S851,569.7,846.4,574.5z"/>
<path class="st5" d="M837.9,467.4c-7.2-3.7-34.5-52.8-34.9-53.5C803,413.9,845.1,471.1,837.9,467.4z"/>
<path class="st5" d="M835.3,491.2c-4.4-0.7-31-57.6-31-58.7C804.3,432.5,839.7,491.9,835.3,491.2z"/>
<path class="st5" d="M923.3,498.2c-5-1.6-17.8-29.1-17.8-29.1S928.3,499.8,923.3,498.2z"/>
<path class="st5" d="M914.8,466.5c-2.7,0-7.1-9.6-7.1-9.6S917.5,466.5,914.8,466.5z"/>
<path class="st5" d="M859.3,270.8c0-4-0.6-8-1.9-11.8c-6.5-19.8-27.9-30.6-47.7-24.1s-30.6,27.9-24.1,47.7c1.7-1.7,2.9-3.7,3.7-6
	c1.3-3.7,2.1-7.8,4.8-10.6c2.9-3.1,7.4-4,11.5-5.4c4-1.4,8.3-4,8.9-8.3c0-0.9,0.2-1.9,0.5-2.8c0.7-1.7,2.9-2.1,4.7-2.2
	c0.9,0,1.7,0,2.6,0c19.7,0.6,35.2,17,34.6,36.6C858.4,279.8,859.3,275.3,859.3,270.8L859.3,270.8z"/>
<path class="st14" d="M786.3,252.3c-1.4,5.2-5.4,8.5-6,14.5c-0.6,5.6,0.3,11.1,1.2,16.6c3.9-0.5,6.4-4.3,7.8-8s2.1-7.8,4.8-10.6
	c2.9-3.1,7.4-4,11.5-5.4c4-1.4,8.3-4,8.9-8.3c0-0.9,0.2-1.9,0.5-2.8c0.7-1.7,2.9-2.1,4.7-2.2c3-0.1,6,0.1,8.9,0.7
	c19.3,4.1,31.7,23,27.6,42.3c4.1-5,7.5-10.5,9.9-16.5c1.1-2.2,1.6-4.7,1.6-7.2c-0.2-3.3-2.2-6.3-3.2-9.5c-1.3-4.2-0.8-8.7-1.1-13.1
	c-0.2-4.4-1.4-9.1-4.9-11.8c-3.3-2.5-8.4-2.8-10.3-6.5c-2.2-4.3,1.8-9.5,0.5-14.1c-5.9,6.4-15.5,7.4-24.2,8
	c4.8-5.1,5.4-12.8,1.5-18.6c-3,12.8-11.8,23.5-23.8,28.9c-4.8,2.1-10.3,3.6-13.4,7.8C785,241.8,787.8,246.9,786.3,252.3z"/>
<path class="st5" d="M865.5,362.6c0.6,1.6,1.2,3.1,2,4.6c0,0-0.6,9.4,2.2,11.6c2.8,2.2,2.2,6.8,2.2,6.8
	c20.7-35.1,48.2-19.9,48.2-19.9c-3.1-1.7-7-15-7-15l-13.7-8.3C873.9,330.4,863.6,357.9,865.5,362.6z"/>
<path class="st13" d="M866,361.8c0.6,1.6,1.2,3.1,2,4.6c0,0-0.7,9.4,2.2,11.6c2.8,2.2,2.2,6.8,2.2,6.8
	c20.7-35.1,48.2-19.9,48.2-19.9c-3.1-1.8-7-15.1-7-15.1l-13.8-8.3C874.3,329.5,864.1,357,866,361.8z"/>
<g class="st15">
	<path d="M848.5,210.7l0.2-0.2c1,3.5-1.1,7.4-1.1,11C846.2,218.2,848.2,214.4,848.5,210.7z"/>
	<path d="M862.8,238.6c0.3,1.4,0.5,2.9,0.6,4.3c0.2,3.1,0,6.2,0.3,9.3c-0.9-3.9-0.5-7.9-0.8-11.9
		C862.9,239.7,862.9,239.2,862.8,238.6z"/>
	<path d="M866.1,272.6c-2.5,6-5.8,11.5-9.9,16.5c0.3-1.3,0.5-2.6,0.6-3.9c3.6-4.6,6.6-9.8,8.9-15.2c1-2.2,1.6-4.5,1.6-6.9
		c0.2,0.8,0.4,1.5,0.4,2.3C867.7,268,867.1,270.4,866.1,272.6z"/>
	<path d="M828,204.5c1,3.8,0.5,7.8-1.5,11.3c-0.8,0.1-1.7,0.1-2.5,0.2C827,212.9,828.4,208.7,828,204.5z"/>
	<path d="M856.1,274.7c-3.4-17.3-18.9-29.4-36.5-28.6c-1.8,0.1-4,0.5-4.7,2.2c-0.3,0.9-0.4,1.8-0.5,2.8c-0.6,4.3-4.9,6.9-8.9,8.3
		c-4,1.4-8.5,2.3-11.5,5.4c-2.7,2.9-3.4,6.9-4.8,10.6s-3.9,7.6-7.8,8l-0.4-2.6c3.9-0.5,6.4-4.3,7.7-8c1.3-3.7,2.1-7.8,4.8-10.6
		c2.9-3.1,7.4-4,11.5-5.4c4-1.4,8.3-4,8.9-8.3c0-0.9,0.2-1.9,0.5-2.8c0.8-1.7,2.9-2.1,4.8-2.2c11-0.4,21.6,4.2,28.8,12.6
		C852.4,261.4,855.3,267.8,856.1,274.7z"/>
</g>
<ellipse class="st16" cx="632.6" cy="221.6" rx="1.8" ry="1.8"/>
</svg>
